PathFileType	4	(X/Y/Z)	S01_0015_Gait_markers.trc
DataRate	CameraRate	NumFrames	NumMarkers	Units	OrigDataRate	OrigDataStartFrame	OrigNumFrames
250.000000	250.000000	4	54	mm	250.000000	134	358
Frame#	Time	HEAD_ANT			R_HEAD			L_HEAD			C7			R_BACK			L_BACK			STERNUM			R_ACROMION			R_HUM_PROX			R_HUM_ANT			R_HUM_POST			R_ELBOW_LAT			R_ELBOW_MED			R_FOREARM			R_WIRST_LAT			R_WRITS_MED			R_HAND			L_ACROMION			L_HUM_PROX			L_HUM_ANT			L_HUM_POST			L_ELBOW_LAT			L_ELBOW_MED			L_FOREARM			L_WRIST_LAT			L_WIRST_MED			L_HAND			R_ILIAC			SACRUM			L_ILIAC			R_GTROCH			R_THIGH__1			R_THIGH_2			R_THIGH_3			R_THIGH_4			R_SHANK_1			R_SHANK_2			R_SHANK_3			R_SHANK_4			R_HEEL			R_FOOT_LAT			R_FOOT_MED			L_GTROCH			L_THIGH_1			L_THIGH_2			L_THIGH_3			L_THIGH_4			L_SHANK_1			L_SHANK_2			L_SHANK_3			L_SHANK_4			L_HEEL			L_FOOT_LAT			L_FOOT_MED			
		X1	Y1	Z1	X2	Y2	Z2	X3	Y3	Z3	X4	Y4	Z4	X5	Y5	Z5	X6	Y6	Z6	X7	Y7	Z7	X8	Y8	Z8	X9	Y9	Z9	X10	Y10	Z10	X11	Y11	Z11	X12	Y12	Z12	X13	Y13	Z13	X14	Y14	Z14	X15	Y15	Z15	X16	Y16	Z16	X17	Y17	Z17	X18	Y18	Z18	X19	Y19	Z19	X20	Y20	Z20	X21	Y21	Z21	X22	Y22	Z22	X23	Y23	Z23	X24	Y24	Z24	X25	Y25	Z25	X26	Y26	Z26	X27	Y27	Z27	X28	Y28	Z28	X29	Y29	Z29	X30	Y30	Z30	X31	Y31	Z31	X32	Y32	Z32	X33	Y33	Z33	X34	Y34	Z34	X35	Y35	Z35	X36	Y36	Z36	X37	Y37	Z37	X38	Y38	Z38	X39	Y39	Z39	X40	Y40	Z40	X41	Y41	Z41	X42	Y42	Z42	X43	Y43	Z43	X44	Y44	Z44	X45	Y45	Z45	X46	Y46	Z46	X47	Y47	Z47	X48	Y48	Z48	X49	Y49	Z49	X50	Y50	Z50	X51	Y51	Z51	X52	Y52	Z52	X53	Y53	Z53	X54	Y54	Z54	

135	0.536	817.1609497070312	1745.612060546875	-307.743011474609	760.9212646484375	1694.192749023438	-229.2305145263668	758.0779418945312	1696.158325195312	-377.0397033691402	626.8207397460938	1524.041381835938	-299.780853271484	557.3589477539062	1329.33837890625	-226.3686370849607	550.4570922851562	1332.1904296875	-370.5570068359372	803.1134033203125	1362.0302734375	-309.0758666992185	712.9955444335938	1473.312744140625	-131.6379547119137	690.4791259765625	1312.538696289062	-37.41247558593721	755.3233032226562	1229.03662109375	-44.6127624511716	636.4523315429688	1227.050048828125	-16.89513206481906	689.3434448242188	1122.0498046875	-19.09586524963354	650.1100463867188	1117.989990234375	-93.99431610107398	818.7798461914062	959.7918090820312	-53.67281341552713	861.42626953125	906.3045043945312	-106.1760787963865	807.0176391601562	867.0078125	-58.65675354003887	893.0719604492188	819.3209228515625	-58.99756622314435	699.2726440429688	1481.549560546875	-470.992034912109	662.3748779296875	1318.884155273438	-569.4843749999997	719.5859985351562	1234.839111328125	-577.6595458984373	596.2568359375	1245.77685546875	-592.527160644531	647.1934204101562	1138.927001953125	-608.514221191406	599.475341796875	1134.49658203125	-547.773254394531	746.7744750976562	959.1705322265626	-604.1918945312498	782.800048828125	896.7742919921876	-556.5726318359373	730.3992919921875	877.8280639648439	-615.789367675781	804.8404541015625	817.6715087890626	-607.5140991210935	692.887939453125	1074.502807617188	-137.4813079833982	561.565185546875	1049.403564453125	-306.7248840332029	680.3497314453125	1075.398071289062	-480.3031311035154	633.9644165039062	930.7322998046875	-128.3385162353514	622.7705688476562	654.69921875	-154.3684234619139	681.5494384765625	660.762939453125	-149.067184448242	667.8432006835938	560.9343872070312	-187.6940917968749	605.7333374023438	577.784423828125	-178.1407470703124	546.8784790039062	350.3469238281251	-185.7108001708984	598.7357788085938	323.6063537597657	-202.2024383544921	582.412353515625	241.3940124511719	-224.3597106933593	520.3778686523438	255.6177520751954	-213.0593872070312	450.6706237792969	58.27928543090827	-307.7496032714844	605.1008911132812	20.02951431274419	-212.0675354003906	669.2196655273438	28.933485031128	-309.7597351074219	657.86279296875	960.1768798828126	-492.3518371582029	848.3889770507812	709.6008911132814	-485.7641296386717	792.36669921875	708.6890869140626	-504.751007080078	812.7241821289062	606.7676391601564	-480.0971374511718	871.8330078125	630.8811645507814	-465.6793212890624	835.69580078125	349.0098571777345	-468.1118774414062	776.4291381835938	335.4309387207032	-468.3173522949218	763.1111450195312	250.4973449707032	-451.2126464843749	827.4951171875	247.8341827392579	-444.4879455566406	706.0634765625	64.38199615478524	-374.1729736328125	875.4449462890625	32.95066452026377	-449.9445495605469	914.988037109375	47.29286193847664	-359.0218811035156	
136	0.54	822.6150512695312	1744.977661132812	-308.0622253417965	766.35400390625	1693.510620117188	-229.4290618896481	763.5859985351562	1695.212524414062	-377.2340393066402	632.1668701171875	1523.265747070312	-299.9064941406247	562.5668334960938	1328.822021484375	-226.3716735839841	555.7866821289062	1331.464599609375	-370.2999267578122	808.3306274414062	1361.059692382812	-309.4609680175778	718.5349731445312	1472.5263671875	-131.7231903076168	696.177978515625	1311.8955078125	-37.41926574707002	761.135498046875	1228.507080078125	-44.58792877197239	642.3842163085938	1226.362060546875	-16.58222961425754	695.236083984375	1121.406372070312	-18.74135017394995	656.01171875	1117.331787109375	-93.57502746582007	825.8232421875	959.7642822265625	-53.8429603576658	868.3314208984375	906.68603515625	-106.545700073242	814.49609375	866.9592895507812	-59.07057189941387	901.024169921875	820.0286254882812	-59.56031036376935	704.4960327148438	1480.685424804688	-471.1241760253903	667.079345703125	1318.096801757813	-569.4509887695309	723.9934692382812	1233.997680664063	-577.8527832031248	600.6612548828125	1244.9501953125	-591.5363769531248	653.8294067382812	1137.09814453125	-607.7072753906248	604.1746215820312	1133.893676757813	-547.6059570312498	751.7952270507812	958.5522460937501	-604.103088378906	787.4156494140625	896.2034912109376	-556.666564941406	734.8189086914062	876.9143066406251	-614.8785400390623	809.5386962890625	817.1795654296876	-608.3005371093748	698.0811157226562	1073.9365234375	-137.464904785156	566.4630737304688	1048.699462890625	-306.8793334960935	685.422119140625	1074.57373046875	-480.4207458496091	638.582763671875	930.5496215820312	-128.3999176025389	625.6637573242188	654.831298828125	-154.254425048828	684.187255859375	660.3857421875	-149.3969879150389	670.1810913085938	560.744140625	-187.6398620605468	607.6110229492188	577.2932739257812	-178.3028411865233	547.9564208984375	350.5275878906251	-185.7993164062499	600.11474609375	323.5884094238282	-201.8697509765624	583.1737670898438	241.3983459472657	-224.3909759521484	521.1270141601562	255.8915100097657	-213.1320037841796	450.7960205078125	58.83845901489265	-308.0437622070312	605.0234985351562	20.05901145935063	-212.176025390625	669.2692260742188	28.92847633361823	-309.7459411621094	663.0574951171875	959.5037231445314	-492.4800720214841	853.7428588867188	709.0716552734376	-485.5904846191405	797.5274658203125	708.0844726562501	-504.4644165039061	818.4680786132812	605.9081420898439	-479.5535583496093	877.0984497070312	630.6753540039064	-465.2690124511718	845.3663940429688	348.4154052734376	-467.4261169433593	786.5440063476562	333.4200134277345	-467.6774597167968	775.5467529296875	248.2777862548829	-450.2297363281249	839.7095947265625	247.7852172851563	-444.9800415039062	723.46337890625	60.67189025878915	-373.7699890136719	893.3759765625	33.00869369506846	-449.8475646972656	932.5415649414062	48.08941650390633	-359.0830688476562	
137	0.544	827.9200439453125	1744.072265625	-308.6708679199215	771.7503051757812	1692.808837890625	-229.6902160644528	769.0039672851562	1694.43896484375	-377.7615356445309	637.5134887695312	1522.6328125	-299.9881896972653	567.8568115234375	1328.307373046875	-226.3658447265622	561.0047607421875	1330.7021484375	-369.9443054199216	813.52783203125	1360.108764648438	-310.1229553222653	724.0388793945312	1471.721923828125	-131.9292449951169	701.9305419921875	1311.212646484375	-37.39162063598604	766.9749755859375	1227.780151367188	-44.58710098266575	648.3192138671875	1225.61767578125	-16.45555114746066	701.3692626953125	1120.717529296875	-18.65118789672827	662.230224609375	1116.226684570312	-93.04813385009741	832.62939453125	960.0018310546875	-54.25001144409158	875.3016967773438	907.0765380859375	-106.9223709106443	821.9649658203125	866.9271240234375	-59.44248962402325	908.7794799804688	820.6187133789062	-60.11530685424786	709.5291137695312	1479.919677734375	-471.4013671874997	671.9183349609375	1317.298583984375	-569.5358276367184	728.7435913085938	1233.103759765625	-577.7198486328123	605.4031372070312	1244.280517578125	-592.1998901367185	658.1685180664062	1136.347290039063	-607.604797363281	608.8206176757812	1133.099365234375	-547.4826660156248	756.3345336914062	957.8574218750001	-604.231750488281	792.0859985351562	895.3729858398439	-556.7263183593748	739.62646484375	876.4051513671876	-615.665832519531	814.2479248046875	816.3502197265626	-608.060119628906	701.2451782226562	1072.955322265625	-137.703674316406	571.6626586914062	1047.984252929688	-307.1742248535154	689.8167724609375	1073.719116210938	-480.618713378906	643.1747436523438	930.0536499023438	-128.676071166992	628.5414428710938	654.752197265625	-154.356475830078	687.2759399414062	660.0521240234375	-149.2345733642577	672.6091918945312	560.318359375	-187.5874481201171	609.9680786132812	577.4352416992188	-178.2011260986327	548.9873657226562	350.7041320800782	-185.8453674316405	601.1231079101562	323.6471252441407	-201.8561401367187	583.9199829101562	241.5614318847657	-224.3978271484374	521.9983520507812	256.2329711914063	-213.3040771484374	450.9213256835938	59.45104217529304	-308.2254333496094	605.0213012695312	20.23547363281255	-211.9723052978516	669.416259765625	28.95400810241706	-309.4820556640625	668.0366821289062	958.7307739257814	-492.756164550781	858.8577880859375	708.4536132812501	-485.0509338378905	802.7705078125	707.1952514648439	-504.5169067382811	823.673095703125	605.5573730468751	-478.8087158203124	882.4081420898438	630.3214721679689	-464.6671752929686	855.3502807617188	348.0331420898439	-466.9769592285156	796.658203125	331.5103454589845	-466.8811645507812	787.8726806640625	246.0945434570314	-449.7850952148437	851.9581909179688	246.9627685546876	-444.6338500976562	740.7123413085938	57.56430435180673	-373.4660339355469	911.1746215820312	33.18387985229502	-450.1141357421875	950.2450561523438	48.94322967529305	-359.2265014648438	
138	0.548	833.3533325195312	1743.188842773438	-309.1724853515621	777.2380981445312	1692.088745117188	-230.0541076660153	774.2913208007812	1693.285034179688	-378.1317138671871	643.0009765625	1521.838500976562	-299.9828186035153	573.099365234375	1327.455200195312	-226.3462829589841	565.9606323242188	1329.94970703125	-369.7730407714841	818.7797241210938	1358.9609375	-310.0274658203122	729.6297607421875	1470.951538085938	-132.0374908447262	707.68408203125	1310.559448242188	-37.4930763244626	772.74072265625	1227.2548828125	-44.68529129028293	654.2000732421875	1224.833984375	-16.30629348754855	707.6265258789062	1119.9384765625	-18.3448982238767	668.3563842773438	1115.303588867188	-92.93825531005835	839.4142456054688	959.9979248046875	-54.55216979980447	882.2421264648438	907.33447265625	-107.4408950805662	829.4010009765625	866.8466796875	-59.71131896972637	916.4744873046875	821.2547607421875	-60.71164321899396	714.9030151367188	1478.969482421875	-471.483489990234	676.7095336914062	1316.505126953125	-569.4455566406247	733.4965209960938	1232.158081054688	-578.004699707031	610.1754760742188	1243.33203125	-591.1577148437498	662.6710815429688	1135.537475585938	-607.5312499999998	614.9109497070312	1131.873168945313	-546.8705444335935	760.6260375976562	956.9423217773439	-604.3671264648435	796.8946533203125	894.6149291992189	-557.0209350585935	744.188720703125	875.5394897460939	-615.7448730468748	818.8963012695312	815.6307983398439	-608.0822143554685	705.8453369140625	1072.088134765625	-137.5846252441404	576.5460205078125	1047.319091796875	-307.3013916015623	694.8901977539062	1072.806762695312	-480.7538146972654	647.83349609375	929.6843872070312	-128.8836059570311	631.4717407226562	654.7587890625	-154.210006713867	690.2422485351562	659.8325805664062	-149.3881988525389	674.7955322265625	560.0977172851562	-187.7045288085936	612.5065307617188	577.5996704101562	-178.0812072753905	550.2393188476562	351.1251525878907	-185.7577972412109	602.0767211914062	323.4281921386719	-202.1613311767577	584.6836547851562	241.8439483642579	-224.2229461669921	522.7598876953125	256.5458374023438	-213.4795532226562	451.0527648925781	60.02339935302741	-308.4241638183594	604.781982421875	20.08394241333012	-212.4213409423828	669.4896850585938	28.93146324157722	-309.4273071289062	673.219970703125	957.8184204101564	-492.782775878906	863.878173828125	707.4512329101564	-484.5511779785155	807.6621704101562	706.2274169921876	-504.0718383789061	828.774658203125	604.6180419921876	-478.1038513183593	887.63916015625	629.4010009765626	-463.527862548828	864.9085083007812	347.7161865234376	-466.7167358398437	806.788330078125	329.7551269531251	-466.3792114257812	800.026123046875	243.9629516601564	-449.0400390624999	864.2344970703125	246.4712524414063	-444.7396545410156	757.9459838867188	54.31052398681649	-373.3677978515625	928.8800659179688	33.25224685668955	-449.9719848632812	967.7025146484375	50.02370452880867	-359.3389282226562	
